<?xml version="1.0" standalone="no"?>
<!DOCTYPE svg PUBLIC "-//W3C//DTD SVG 20010904//EN"
 "http://www.w3.org/TR/2001/REC-SVG-20010904/DTD/svg10.dtd">
<svg version="1.0" xmlns="http://www.w3.org/2000/svg"
 width="500.000000pt" height="500.000000pt" viewBox="0 0 500.000000 500.000000"
 preserveAspectRatio="xMidYMid meet">

<g transform="translate(0.000000,500.000000) scale(0.100000,-0.100000)"
fill="#393e46" stroke="none">
<path d="M2089 3951 c-60 -37 -82 -85 -87 -181 -5 -90 9 -148 45 -191 36 -42
79 -59 150 -59 76 0 129 30 163 90 22 39 25 57 25 140 0 83 -3 101 -25 140
-34 61 -87 90 -166 90 -49 0 -68 -5 -105 -29z m128 -79 c31 -19 46 -158 23
-216 -14 -38 -58 -46 -83 -15 -16 20 -18 36 -15 117 2 79 6 96 22 108 22 16
35 17 53 6z"/>
<path d="M2425 3522 c-126 -251 -231 -460 -233 -464 -2 -5 26 -8 62 -8 l66 0
227 453 c126 248 229 458 231 465 3 9 -14 12 -60 12 l-63 0 -230 -458z"/>
<path d="M4235 3974 c-10 -4 -725 -131 -797 -141 -21 -3 -38 -9 -38 -12 0 -4
52 -59 115 -122 63 -64 115 -120 115 -125 0 -5 -256 -266 -570 -579 l-570
-570 -368 368 c-202 202 -372 367 -377 367 -6 0 -237 -227 -515 -505 l-505
-505 115 -115 116 -116 389 391 c215 214 395 390 400 390 6 0 120 -111 256
-247 135 -137 300 -302 367 -368 l122 -120 691 690 690 690 120 -123 c67 -68
123 -122 125 -119 2 2 16 69 30 148 13 79 47 268 74 420 28 153 50 284 50 293
0 15 -13 19 -35 10z"/>
<path d="M2693 3501 c-54 -25 -91 -81 -103 -157 -20 -121 20 -233 96 -269 106
-50 223 -14 267 84 39 85 24 243 -27 300 -52 58 -156 77 -233 42z m119 -98
c35 -40 30 -212 -7 -239 -21 -16 -53 -7 -67 20 -19 35 -16 177 5 209 20 31 47
35 69 10z"/>
<path d="M3600 2755 l-255 -255 0 -738 0 -737 258 -3 257 -2 0 995 c0 547 -1
995 -3 995 -1 0 -117 -115 -257 -255z"/>
<path d="M1422 2067 l-312 -312 2 -365 3 -365 630 0 630 0 0 355 c0 195 -3
362 -7 370 -7 17 -614 624 -626 627 -4 1 -148 -139 -320 -310z m283 -407 l0
-105 -100 0 -100 0 -3 94 c-1 52 0 101 2 108 4 11 28 13 103 11 l98 -3 0 -105z
m280 0 l0 -105 -100 0 -100 0 -3 94 c-1 52 -1 99 1 105 3 7 42 11 103 11 l99
0 0 -105z m-280 -285 l0 -100 -102 -3 -103 -3 0 106 0 106 103 -3 102 -3 0
-100z m285 0 l0 -106 -102 3 -103 3 -3 103 -3 102 106 0 105 0 0 -105z"/>
<path d="M2857 2012 l-257 -257 0 -368 0 -367 260 0 260 0 0 625 c0 344 -1
625 -3 625 -1 0 -118 -116 -260 -258z"/>
</g>
</svg>
